[Header]
FileType HTR
DataType HTRS
FileVersion 1
NumSegments 22
NumFrames 6
DataFrameRate 24
EulerRotationOrder ZYX
CalibrationUnits mm
RotationUnits Degrees
GlobalAxisofGravity Y
BoneLengthAxis Y
ScaleFactor 1.0
[SegmentNames&Hierarchy]
reference	GLOBAL
Hips	reference
Spine	Hips
Spine1	Spine
Neck	Spine1
Head	Neck
LeftShoulder	Spine1
LeftArm	LeftShoulder
LeftForeArm	LeftArm
LeftHand	LeftForeArm
RightShoulder	Spine1
RightArm	RightShoulder
RightForeArm	RightArm
RightHand	RightForeArm
LeftUpLeg	Hips
LeftLeg	LeftUpLeg
LeftFoot	LeftLeg
LeftToeBase	LeftFoot
RightUpLeg	Hips
RightLeg	RightUpLeg
RightFoot	RightLeg
RightToeBase	RightFoot
[BasePosition]
reference	0	0	0	0	0	0	1
Hips	0	0	0	0	0	0	1
Spine	0	0	0	0	-0	90	1
Spine1	0	0	0	0	0	0	1
Neck	0	0	0	-7.352327771	-7.352327771	90	1
Head	0	0	0	0	-0	90	1
LeftShoulder	0	0	0	0	0	0	1
LeftArm	0	0	0	0	0	0	1
LeftForeArm	0	0	0	0	0	0	1
LeftHand	0	0	0	0	0	0	1
RightShoulder	0	0	0	0	-0	180	1
RightArm	0	0	0	0	-0	180	1
RightForeArm	0	0	0	0	-0	180	1
RightHand	0	0	0	0	-0	180	1
LeftUpLeg	0	0	0	0	-0	-90	1
LeftLeg	0	0	0	0	-0	-90	1
LeftFoot	0	0	0	66.57146043	-66.57146043	-90	1
LeftToeBase	0	0	0	0	-90	0	1
RightUpLeg	0	0	0	0	-0	-90	1
RightLeg	0	0	0	0	-0	-90	1
RightFoot	0	0	0	66.57146043	-66.57146043	-90	1
RightToeBase	0	0	0	0	-90	0	1
[reference]
10	0	0	0	0	-0	0	1.0
11	0	0	0	0	-0	0	1.0
12	0	0	0	0	-0	0	1.0
13	0	0	0	0	-0	0	1.0
14	0	0	0	0	-0	0	1.0
15	0	0	0	0	-0	0	1.0
[Hips]
10	7.355530262	8.631821632	3.040503263	-13.96390533	-101.4581909	17.44655228	1.0
11	7.342651367	8.622826576	3.046135664	-14.95871544	-101.1617813	18.4661541	1.0
12	7.329778671	8.613689423	3.051359892	-15.31213188	-100.9365768	18.72380829	1.0
13	7.316871643	8.604372025	3.056237459	-14.52494812	-100.7212448	17.72454834	1.0
14	7.303888321	8.594838142	3.060829163	-14.26795769	-100.6112976	16.84764862	1.0
15	7.284910679	8.585046768	3.06519556	-13.70057201	-100.8670578	15.02886581	1.0
[Spine]
10	0	0.7457100153	0	-9.936248779	2.456897259	-88.96365356	1.0
11	0	0.7457100153	0	-9.803999901	2.518473148	-88.88967133	1.0
12	0	0.7457100153	0	-9.554473877	2.631172657	-88.93379211	1.0
13	0	0.7457100153	0	-9.374322891	2.783800364	-89.12151337	1.0
14	0	0.7457100153	0	-8.410140038	2.963513613	-89.11924744	1.0
15	0	0.7457100153	0	-6.445892811	3.326340914	-89.13333893	1.0
[Spine1]
10	0	2.140589952	0	9.394281387	0.6697973013	1.428066254	1.0
11	0	2.140589952	0	9.308956146	0.6977870464	1.344441056	1.0
12	0	2.140589952	0	9.304439545	0.7429071665	1.35520339	1.0
13	0	2.140589952	0	9.418588638	0.8018639088	1.239458442	1.0
14	0	2.140589952	0	9.343904495	0.8713021874	1.15686655	1.0
15	0	2.140589952	0	8.846816063	1.022409558	1.000010371	1.0
[Neck]
10	0	2.32246995	0	-12.58242798	5.063164711	-89.27045441	1.0
11	0	2.32246995	0	-12.63959503	4.896865368	-89.11854553	1.0
12	0	2.32246995	0	-12.60866547	4.718308449	-89.14550781	1.0
13	0	2.32246995	0	-12.4737463	4.56558609	-89.5035553	1.0
14	0	2.32246995	0	-12.5475235	4.431687832	-90.25792694	1.0
15	0	2.32246995	0	-12.81899166	4.361856461	-90.7256546	1.0
[Head]
10	0	1.409579992	0.1818799973	-4.519998074	-2.215796471	-92.1795578	1.0
11	0	1.409579992	0.1818799973	-4.570862293	-2.397453308	-92.17352295	1.0
12	0	1.409579992	0.1818799973	-4.64024353	-2.593410492	-92.04434204	1.0
13	0	1.409579992	0.1818799973	-4.746136189	-2.771235943	-91.62693024	1.0
14	0	1.409579992	0.1818799973	-4.858073235	-2.900024414	-91.34671021	1.0
15	0	1.409579992	0.1818799973	-4.746094704	-2.944752932	-91.39228058	1.0
[LeftShoulder]
10	0.3668199778	1.946700096	-0.02662999928	-14.21207905	-12.62409401	-4.878344059	1.0
11	0.3668199778	1.946700096	-0.02662999928	-14.26605797	-12.60288048	-4.74243021	1.0
12	0.3668199778	1.946700096	-0.02662999928	-14.23496342	-12.54680061	-4.642362118	1.0
13	0.3668199778	1.946700096	-0.02662999928	-14.01268005	-12.50456333	-4.498596191	1.0
14	0.3668199778	1.946700096	-0.02662999928	-12.56147861	-12.46088028	-4.750997066	1.0
15	0.3668199778	1.946700096	-0.02662999928	-12.84188652	-12.45910454	-4.329566002	1.0
[LeftArm]
10	1.140689969	0	0	39.11380005	18.32985878	-76.36485291	1.0
11	1.140689969	0	0	38.71643066	18.1562767	-76.41687012	1.0
12	1.140689969	0	0	39.56008911	18.09666824	-76.52809906	1.0
13	1.140689969	0	0	39.97551727	17.69931602	-76.54602051	1.0
14	1.140689969	0	0	40.5509758	15.93196201	-76.19535828	1.0
15	1.140689969	0	0	40.70402145	15.74883747	-76.44747925	1.0
[LeftForeArm]
10	2.749800205	0	0	-14.41824818	-13.15788746	1.782217741	1.0
11	2.749800205	0	0	-14.16305923	-13.33681011	1.624141216	1.0
12	2.749800205	0	0	-14.6877079	-13.66859627	2.161755323	1.0
13	2.749800205	0	0	-14.92023087	-13.86057472	2.155174255	1.0
14	2.749800205	0	0	-14.97716618	-13.96709061	1.85371685	1.0
15	2.749800205	0	0	-14.44644928	-14.13026619	1.582083225	1.0
[LeftHand]
10	2.295179844	0	0	-14.21428871	-3.444275379	0.05764939263	1.0
11	2.295179844	0	0	-13.97896385	-3.702530146	0.1821572483	1.0
12	2.295179844	0	0	-14.4374361	-3.724993706	0.2748419344	1.0
13	2.295179844	0	0	-14.67529678	-3.729413748	0.5271240473	1.0
14	2.295179844	0	0	-14.77056789	-3.500396252	0.6737743616	1.0
15	2.295179844	0	0	-14.25748634	-2.982214212	0.2789922953	1.0
[RightShoulder]
10	-0.3601199985	1.946700096	-0.02662999928	-6.197697639	3.978681087	177.7536011	1.0
11	-0.3601199985	1.946700096	-0.02662999928	-5.997402668	4.032883644	177.8868256	1.0
12	-0.3601199985	1.946700096	-0.02662999928	-6.086112022	4.055551529	177.8452911	1.0
13	-0.3601199985	1.946700096	-0.02662999928	-5.826950073	4.16072464	178.0808716	1.0
14	-0.3601199985	1.946700096	-0.02662999928	-5.824371338	4.207536221	178.0822906	1.0
15	-0.3601199985	1.946700096	-0.02662999928	-5.631278992	4.260969162	178.3022308	1.0
[RightArm]
10	-1.140689969	0	0	56.35182953	-1.962681055	-98.05290222	1.0
11	-1.140689969	0	0	56.41414261	-1.729568601	-98.20994568	1.0
12	-1.140689969	0	0	56.78266907	-1.732638478	-98.15700531	1.0
13	-1.140689969	0	0	57.10871506	-1.458181262	-98.34365082	1.0
14	-1.140689969	0	0	57.19441986	-1.376859784	-98.21897888	1.0
15	-1.140689969	0	0	57.40153885	-1.405706406	-98.09999084	1.0
[RightForeArm]
10	-2.749800205	0	0	-2.947837353	12.43675041	176.5494843	1.0
11	-2.749800205	0	0	-2.538045883	12.5043478	176.5711517	1.0
12	-2.749800205	0	0	-3.297152996	12.64645672	176.2239838	1.0
13	-2.749800205	0	0	-2.690832853	12.68282032	176.2843933	1.0
14	-2.749800205	0	0	-2.91787982	12.46536636	176.1315765	1.0
15	-2.749800205	0	0	-4.017094612	12.0869875	175.3043671	1.0
[RightHand]
10	-2.295179844	0	0	-2.825521469	9.311426163	176.8855591	1.0
11	-2.295179844	0	0	-2.437460899	9.43255043	176.6659851	1.0
12	-2.295179844	0	0	-3.139902592	9.346105576	176.8040161	1.0
13	-2.295179844	0	0	-2.566986084	9.440112114	176.4986267	1.0
14	-2.295179844	0	0	-2.79871583	9.329288483	176.2830811	1.0
15	-2.295179844	0	0	-3.842516661	8.856476784	175.8378906	1.0
[LeftUpLeg]
10	0.9094099998	0	0	4.069280148	3.23001194	89.58531189	1.0
11	0.9094099998	0	0	3.727782726	3.247079849	89.55897522	1.0
12	0.9094099998	0	0	3.739060402	3.230728388	89.31263733	1.0
13	0.9094099998	0	0	2.476684093	3.292260647	88.9134903	1.0
14	0.9094099998	0	0	0.7648749352	3.991985798	88.32175446	1.0
15	0.9094099998	0	0	-0.634275198	5.503022194	87.9653244	1.0
[LeftLeg]
10	0	-4.498080254	0	3.129351377	-6.331787586	87.43489075	1.0
11	0	-4.498080254	0	3.90622592	-6.347097874	87.41668701	1.0
12	0	-4.498080254	0	4.23415947	-7.748801231	88.51924133	1.0
13	0	-4.498080254	0	7.813611507	-6.461432457	87.35887909	1.0
14	0	-4.498080254	0	13.25156403	-5.715415955	88.05368805	1.0
15	0	-4.498080254	0	19.23799706	-7.184141159	88.25088501	1.0
[LeftFoot]
10	0	-3.729400158	0	-80.95658875	112.6958084	-32.65182877	1.0
11	0	-3.729400158	0	-81.78192139	112.4810333	-33.03973007	1.0
12	0	-3.729400158	0	-82.30622101	110.8593674	-33.58579254	1.0
13	0	-3.729400158	0	-78.82304382	109.5008087	-27.65357971	1.0
14	0	-3.729400158	0	-80.94341278	106.2749557	-28.39331245	1.0
15	0	-3.729400158	0	-86.77526855	104.2706909	-32.76625824	1.0
[LeftToeBase]
10	0	-0.5911099911	1.364109993	0	0	0	1.0
11	0	-0.5911099911	1.364109993	0	0	0	1.0
12	0	-0.5911099911	1.364109993	0	0	0	1.0
13	0	-0.5911099911	1.364109993	0	0	0	1.0
14	0	-0.5911099911	1.364109993	0	0	0	1.0
15	0	-0.5911099911	1.364109993	0	0	0	1.0
[RightUpLeg]
10	-0.9094099998	0	0	1.792340517	-3.927112341	92.15606689	1.0
11	-0.9094099998	0	0	1.801142573	-4.041633606	92.14952087	1.0
12	-0.9094099998	0	0	1.74204433	-4.363926411	92.12825775	1.0
13	-0.9094099998	0	0	0.9382022619	-4.706838608	92.15492249	1.0
14	-0.9094099998	0	0	-0.9782757759	-5.425425053	93.04593658	1.0
15	-0.9094099998	0	0	-3.416437149	-5.929907322	94.13093567	1.0
[RightLeg]
10	0	-4.498080254	0	6.303799629	-2.621670961	89.73968506	1.0
11	0	-4.498080254	0	6.337674141	-3.277407408	89.71484375	1.0
12	0	-4.498080254	0	7.035141945	-3.047408104	89.5811615	1.0
13	0	-4.498080254	0	9.415385246	-1.642675638	88.81488037	1.0
14	0	-4.498080254	0	14.84147453	-0.474052012	86.20511627	1.0
15	0	-4.498080254	0	22.31890488	0.04330223799	82.45649719	1.0
[RightFoot]
10	0	-3.729400158	0	48.68753052	60.70236206	89.58906555	1.0
11	0	-3.729400158	0	49.20769119	60.59848404	90.1847229	1.0
12	0	-3.729400158	0	47.83670044	60.18841553	89.17800903	1.0
13	0	-3.729400158	0	44.46145248	59.38528824	86.9419632	1.0
14	0	-3.729400158	0	43.80456543	58.32819366	87.95207214	1.0
15	0	-3.729400158	0	45.77539825	56.69894409	91.79826355	1.0
[RightToeBase]
10	0	-0.5911099911	1.364109993	0	0	0	1.0
11	0	-0.5911099911	1.364109993	0	0	0	1.0
12	0	-0.5911099911	1.364109993	0	0	0	1.0
13	0	-0.5911099911	1.364109993	0	0	0	1.0
14	0	-0.5911099911	1.364109993	0	0	0	1.0
15	0	-0.5911099911	1.364109993	0	0	0	1.0
[EndOfFile]
